<svg id="Layer_1" data-name="Layer 1" xmlns="http://www.w3.org/2000/svg" width="176.693" height="37.145" viewBox="0 0 176.693 37.145"><defs><style>.cls-1{fill:#00aeef;}.cls-2{fill:#333;}.cls-3{fill:#fff;}</style></defs><title>Wordapp_logo_b1</title><path class="cls-1" d="M31.157,8.625a8.966,8.966,0,1,0,8.967,8.966A8.966,8.966,0,0,0,31.157,8.625Zm0,13.664a4.7,4.7,0,1,1,4.7-4.7A4.7,4.7,0,0,1,31.157,22.289Z"/><circle class="cls-1" cx="92.262" cy="24.47" r="2.086" transform="translate(28.9 95.859) rotate(-63.263)"/><circle class="cls-1" cx="92.262" cy="10.932" r="2.086" transform="translate(40.978 88.403) rotate(-63.254)"/><rect class="cls-1" x="90.175" y="10.928" width="4.172" height="13.543"/><path class="cls-1" d="M85.492,8.846A8.855,8.855,0,1,0,94.348,17.7,8.855,8.855,0,0,0,85.492,8.846Zm0,13.5a4.64,4.64,0,1,1,4.64-4.64A4.64,4.64,0,0,1,85.492,22.342Z"/><circle class="cls-1" cx="98.318" cy="10.946" r="2.107" transform="translate(44.324 93.837) rotate(-63.273)"/><circle class="cls-1" cx="98.318" cy="30.778" r="2.107" transform="translate(26.599 104.739) rotate(-63.264)"/><rect class="cls-1" x="96.212" y="10.947" width="4.214" height="19.836"/><path class="cls-1" d="M105.155,26.727a8.944,8.944,0,1,0-8.944-8.943A8.943,8.943,0,0,0,105.155,26.727Zm0-13.631a4.687,4.687,0,1,1-4.687,4.687A4.687,4.687,0,0,1,105.155,13.1Z"/><circle class="cls-1" cx="118.078" cy="10.946" r="2.107" transform="translate(55.2 111.488) rotate(-63.275)"/><circle class="cls-1" cx="118.078" cy="30.778" r="2.106" transform="translate(37.472 122.388) rotate(-63.266)"/><rect class="cls-1" x="115.972" y="10.947" width="4.213" height="19.836"/><path class="cls-1" d="M124.915,26.727a8.944,8.944,0,1,0-8.944-8.943A8.944,8.944,0,0,0,124.915,26.727Zm0-13.631a4.687,4.687,0,1,1-4.687,4.687A4.687,4.687,0,0,1,124.915,13.1Z"/><circle class="cls-1" cx="61.469" cy="24.408" r="2.157" transform="translate(12.018 68.325) rotate(-63.265)"/><circle class="cls-1" cx="61.469" cy="10.985" r="2.157" transform="translate(24.004 60.94) rotate(-63.264)"/><rect class="cls-1" x="59.311" y="10.981" width="4.314" height="13.426"/><circle class="cls-1" cx="65.617" cy="10.985" r="2.158" transform="translate(26.284 64.643) rotate(-63.262)"/><circle class="cls-1" cx="61.469" cy="10.985" r="2.158" transform="translate(24.003 60.939) rotate(-63.262)"/><rect class="cls-1" x="61.465" y="8.828" width="4.151" height="4.316"/><circle class="cls-1" cx="65.617" cy="24.408" r="2.158" transform="translate(14.297 72.026) rotate(-63.262)"/><circle class="cls-1" cx="61.469" cy="24.408" r="2.158" transform="translate(12.015 68.322) rotate(-63.262)"/><rect class="cls-1" x="61.465" y="22.251" width="4.151" height="4.315"/><path class="cls-1" d="M74.772,17.7a9.02,9.02,0,0,0-9.154-8.874l0,4.317a4.652,4.652,0,0,1,4.8,4.558,4.644,4.644,0,0,1-4.794,4.549v4.325A9.02,9.02,0,0,0,74.772,17.7Z"/><circle class="cls-1" cx="44.136" cy="24.399" r="2.157" transform="translate(2.494 52.846) rotate(-63.273)"/><circle class="cls-1" cx="44.136" cy="10.977" r="2.157" transform="translate(14.48 45.459) rotate(-63.27)"/><rect class="cls-1" x="41.978" y="10.973" width="4.315" height="13.426"/><path class="cls-1" d="M57.348,23.723a2.153,2.153,0,0,0-.526-.849h0l-3.612-3.612a14.3,14.3,0,0,1-5.148.955l5.708,5.708,0,0a2.156,2.156,0,0,0,3.574-2.2Z"/><path class="cls-1" d="M50.616,8.859c-.333-.025-.68-.036-.952-.039H46.6a2.528,2.528,0,0,0-1.025.2,1.969,1.969,0,0,0-.919.891,1.989,1.989,0,0,0,.881,2.668,1.95,1.95,0,0,0,.349.136v.077h4.089a2.755,2.755,0,1,1,0,5.5H46.347l-.464.008v.074a1.981,1.981,0,0,0-.349,3.678,1.959,1.959,0,0,0,.349.136v.077h3.626v.007h.464A6.838,6.838,0,0,0,56.9,15.547,6.835,6.835,0,0,0,50.616,8.859Z"/><circle class="cls-1" cx="6.284" cy="24.34" r="2.194" transform="translate(-18.821 25.626) rotate(-78.456)"/><circle class="cls-1" cx="2.654" cy="10.99" r="2.193" transform="translate(-8.644 11.392) rotate(-78.461)"/><rect class="cls-1" x="2.274" y="10.744" width="4.388" height="13.838" transform="translate(-4.478 1.791) rotate(-15.211)"/><circle class="cls-1" cx="15.825" cy="24.363" r="2.194" transform="translate(-4.556 3.66) rotate(-11.545)"/><circle class="cls-1" cx="19.454" cy="11.013" r="2.193" transform="matrix(0.98, -0.2, 0.2, 0.98, -1.81, 4.115)"/><rect class="cls-1" x="10.721" y="15.492" width="13.838" height="4.388" transform="translate(-4.054 30.068) rotate(-74.789)"/><path class="cls-1" d="M13.234,14.134a2.192,2.192,0,0,0-4.175-.876h0L4.3,23.407h0a2.192,2.192,0,1,0,3.968,1.864h0L12.6,15.952l.43-.831A2.18,2.18,0,0,0,13.234,14.134Z"/><path class="cls-1" d="M17.808,23.431l-3.968,1.863a2.192,2.192,0,1,0,3.968-1.863Z"/><path class="cls-1" d="M15.884,22.17a2.192,2.192,0,0,1,1.923,1.261h0L13.025,13.257,9.939,17l3.9,8.3h0a2.19,2.19,0,0,1,2.045-3.124Z"/><rect class="cls-2" x="136.588" y="8.859" width="29.967" height="12.812" rx="2" ry="2"/><path class="cls-3" d="M140.905,13.869l.17-.17c.319-.319.51-.529.949-.529h1.06a1.146,1.146,0,0,1,.71.34l.329.279a1.269,1.269,0,0,1,.52,1.109v1.929a1.268,1.268,0,0,1-.52,1.109l-.329.28a1.308,1.308,0,0,1-.75.34h-.989a1.383,1.383,0,0,1-.93-.489l-.22-.21v.06c0,.31-.1.64-.479.64-.41,0-.48-.34-.48-.67V11.851c0-.33.07-.66.48-.66s.479.33.479.66Zm0,2.379a.662.662,0,0,0,.29.64l.549.47c.12.1.271.24.37.24h.729a.425.425,0,0,0,.3-.091l.42-.35c.11-.09.12-.319.12-.51v-1.7a.513.513,0,0,0-.13-.4l-.439-.34a.34.34,0,0,0-.23-.08h-.67a.65.65,0,0,0-.4.17l-.619.54a.668.668,0,0,0-.29.569Z"/><path class="cls-3" d="M148.155,18.557a1.021,1.021,0,0,1-.86-.26l-.409-.36a1.192,1.192,0,0,1-.49-1.079V15.009a1.266,1.266,0,0,1,.47-1.149l.34-.29a1.291,1.291,0,0,1,1.06-.4h.88a1.373,1.373,0,0,1,1.06.35l.39.31a1.359,1.359,0,0,1,.5,1.249v.77c0,.55-.09.71-.659.71h-3.078v.32a.464.464,0,0,0,.14.279l.24.26a.8.8,0,0,0,.64.181h2.059c.319,0,.659.069.659.479s-.379.479-.659.479Zm-.8-2.958h2.778v-.58c0-.18.01-.33-.12-.45l-.37-.319a.677.677,0,0,0-.459-.12h-.81a.771.771,0,0,0-.49.11l-.33.239a.438.438,0,0,0-.2.44Z"/><path class="cls-3" d="M154.375,16.748c0,.539-.021.85.64.85h.489c.39,0,.569-.03.67-.42a.489.489,0,0,1,.479-.39.481.481,0,0,1,.489.479,1.439,1.439,0,0,1-.329.8,1.556,1.556,0,0,1-1.319.489H155a1.565,1.565,0,0,1-1.239-.479,1.732,1.732,0,0,1-.35-1.34V14.129h-.31c-.28,0-.66-.06-.66-.479s.34-.479.66-.479h.31v-.979c0-.33.07-.66.479-.66s.48.33.48.66v.979h1.608c.32,0,.66.069.66.479s-.38.479-.66.479h-1.608Z"/><path class="cls-3" d="M160.1,14.129c-.28,0-.659-.06-.659-.479s.34-.479.659-.479h1.319a1.515,1.515,0,0,1,1.239.43,1.383,1.383,0,0,1,.43,1.139l.1,3.259c.011.279-.13.56-.449.56a.489.489,0,0,1-.49-.479l-.659.34a.871.871,0,0,1-.59.14h-.919a1.5,1.5,0,0,1-1.09-.34,1.342,1.342,0,0,1-.5-1.18v-.419a1.254,1.254,0,0,1,.47-1.07,1.581,1.581,0,0,1,1.12-.359h2.059v-.22c0-.72-.16-.84-.85-.84Zm-.01,2.02c-.26,0-.64.069-.64.419v.64c0,.32.39.391.619.391h1.06l1.06-.55v-.21c0-.53-.149-.689-.68-.689Z"/></svg>